<svg
  xmlns="http://www.w3.org/2000/svg"
  viewBox="0 0 24 24"
  fill="none"
  aria-hidden="true"
>
  <title>DeepSeek</title>
  <rect width="24" height="24" rx="5" fill="#0F766E" />
  <path
    d="M6.1 17V7h3.45c3.05 0 5.15 2 5.15 5s-2.1 5-5.15 5H6.1Zm2.15-1.9h1.2c1.85 0 3.05-1.2 3.05-3.1S11.3 8.9 9.45 8.9h-1.2v6.2Z"
    fill="white"
  />
  <path
    d="M14.95 16.15v-2.05c.65.65 1.55 1.05 2.45 1.05.75 0 1.2-.28 1.2-.76 0-.44-.37-.66-1.43-1.01-1.45-.48-2.31-1.15-2.31-2.55 0-1.55 1.23-2.66 3.05-2.66.92 0 1.74.2 2.33.56v2c-.58-.48-1.39-.77-2.17-.77-.66 0-1.05.25-1.05.68 0 .42.38.64 1.36.98 1.58.53 2.43 1.18 2.43 2.61 0 1.7-1.32 2.77-3.28 2.77-1.04 0-1.95-.29-2.58-.85Z"
    fill="white"
  />
</svg>
